<svg width="40" height="40" viewBox="0 0 40 40" fill="none" xmlns="http://www.w3.org/2000/svg">
<g clip-path="url(#clip0_24_229)">
<path d="M20 0C8.93618 0 0 8.93618 0 20C0 31.0639 8.93618 40.0001 20 40.0001C31.0639 40.0001 40.0001 31.0639 40.0001 20C40.0001 8.93618 31.0638 0 20 0ZM20 36.6808C10.8085 36.6808 3.31915 29.1915 3.31915 20C3.31915 10.8085 10.8085 3.31915 20 3.31915C29.1915 3.31915 36.6809 10.8085 36.6809 20C36.6809 29.1915 29.1915 36.6808 20 36.6808Z" fill="#00FFAF"/>
<path d="M29.3617 10.7234C28.8511 10.2128 28.0851 10.0425 27.4043 10.383L16.5107 15.7447C16.1703 15.9149 15.915 16.1702 15.7448 16.5106L10.3831 27.3192C10.1277 28 10.2129 28.766 10.7235 29.2766C11.064 29.6171 11.4895 29.7873 11.915 29.7873C12.0852 29.7873 12.3405 29.7021 12.5958 29.6171L23.4894 24.2554C23.8299 24.0852 24.0852 23.8299 24.2554 23.4894L29.7022 12.6809C29.9575 12 29.8724 11.2341 29.3617 10.7234ZM21.4468 21.4468L15.4894 24.4255L18.4681 18.4681L24.4255 15.4894L21.4468 21.4468Z" fill="#00FFAF"/>
</g>
<defs>
<clipPath id="clip0_24_229">
<rect width="40" height="40" fill="white"/>
</clipPath>
</defs>
</svg>
