<svg width="40" height="40" viewBox="0 0 40 40" fill="none" xmlns="http://www.w3.org/2000/svg">
<g clip-path="url(#clip0_1_85)">
<path d="M6.88265 1.61008C6.31577 0.790234 5.46358 0.240312 4.48304 0.0614836C3.50265 -0.117188 2.51116 0.0963274 1.69132 0.663359C-0.00086996 1.83359 -0.425636 4.16242 0.744599 5.85461C1.31147 6.67445 2.16366 7.22437 3.14421 7.4032C3.37022 7.44445 3.59663 7.46477 3.82147 7.46477C4.57241 7.46469 5.30507 7.23758 5.93593 6.80133C7.62811 5.63117 8.05288 3.30234 6.88265 1.61008ZM4.45819 4.66469C4.20921 4.83687 3.90811 4.9018 3.6103 4.84742C3.31249 4.79312 3.05366 4.62609 2.88147 4.37711C2.52608 3.86305 2.65499 3.1557 3.16905 2.80023C3.36069 2.66773 3.58319 2.59883 3.81132 2.59883C3.87952 2.59883 3.94843 2.605 4.01702 2.6175C4.31483 2.6718 4.57366 2.83883 4.74585 3.08781C5.10124 3.6018 4.97225 4.30914 4.45819 4.66469Z" fill="#9B999A"/>
<path d="M16.9963 5.92367C15.826 4.23148 13.4971 3.80687 11.8049 4.97695C10.9852 5.54383 10.4352 6.39609 10.2564 7.37656C10.0776 8.35703 10.2914 9.34851 10.8582 10.1684C11.5817 11.2145 12.7477 11.7762 13.9326 11.7761C14.6643 11.776 15.4034 11.5616 16.0496 11.115C17.7417 9.94484 18.1665 7.61601 16.9963 5.92367ZM14.5718 8.97805C14.0579 9.33336 13.3505 9.20461 12.995 8.69055C12.8228 8.44148 12.7579 8.14031 12.8122 7.84258C12.8665 7.54476 13.0335 7.28594 13.2825 7.11375C13.4789 6.97812 13.7032 6.91297 13.9255 6.91297C14.2854 6.91297 14.6396 7.08359 14.8594 7.40125C15.2148 7.91516 15.0859 8.62258 14.5718 8.97805Z" fill="#9B999A"/>
<path d="M23.9268 15.9462C22.7566 14.2541 20.4279 13.8293 18.7355 14.9994C17.0433 16.1695 16.6186 18.4984 17.7888 20.1908C18.5123 21.2369 19.6783 21.7985 20.8632 21.7985C21.595 21.7985 22.3341 21.5841 22.98 21.1375C23.7998 20.5706 24.3498 19.7184 24.5286 18.7379C24.7075 17.7573 24.4937 16.766 23.9268 15.9462ZM21.9728 18.2717C21.9186 18.5694 21.7515 18.8284 21.5025 19.0005C20.9887 19.356 20.2811 19.2271 19.9257 18.713C19.5703 18.199 19.6992 17.4916 20.2132 17.1362C20.7271 16.7809 21.4345 16.9097 21.7901 17.4238C21.9623 17.6728 22.0271 17.9739 21.9728 18.2717Z" fill="#9B999A"/>
<path d="M22.4532 28.403C21.8864 27.5832 21.0341 27.0332 20.0537 26.8545C19.0731 26.6757 18.0817 26.8894 17.2619 27.4563L17.262 27.4563C16.4423 28.0231 15.8923 28.8754 15.7134 29.8559C15.5346 30.8363 15.7483 31.8278 16.3152 32.6477C17.0387 33.6938 18.2047 34.2555 19.3896 34.2554C20.1213 34.2553 20.8605 34.0409 21.5065 33.5943C23.1988 32.4241 23.6235 30.0952 22.4532 28.403ZM20.0288 31.4574C19.5148 31.8127 18.8074 31.6839 18.452 31.1699C18.2798 30.9209 18.2149 30.6197 18.2692 30.322C18.3235 30.0241 18.4905 29.7653 18.7395 29.5931L18.7396 29.5931C18.9312 29.4606 19.1537 29.3916 19.3819 29.3916C19.4502 29.3916 19.519 29.3978 19.5876 29.4102C19.8854 29.4645 20.1442 29.6316 20.3165 29.8806C20.6718 30.3946 20.5428 31.102 20.0288 31.4574Z" fill="#9B999A"/>
<path d="M39.2555 22.1745C38.0852 20.4823 35.7562 20.0576 34.0641 21.2279C32.3719 22.3981 31.9472 24.727 33.1175 26.4192C33.8409 27.4653 35.0069 28.027 36.1919 28.027C36.9236 28.027 37.6626 27.8125 38.3088 27.3659C40.0011 26.1957 40.4257 23.8668 39.2555 22.1745ZM36.8311 25.229C36.3172 25.5842 35.6098 25.4556 35.2543 24.9414C34.8988 24.4274 35.0278 23.7201 35.5419 23.3646C35.7381 23.229 35.9626 23.1639 36.1847 23.1639C36.5447 23.1639 36.8989 23.3345 37.1187 23.6523C37.4741 24.1662 37.3451 24.8735 36.8311 25.229Z" fill="#9B999A"/>
<path d="M36.5137 34.1476C35.3437 32.4554 33.0148 32.0306 31.3224 33.2009C29.6302 34.3711 29.2055 36.6999 30.3757 38.3923C31.0991 39.4384 32.2652 40 33.4501 40C34.1818 40 34.9209 39.7856 35.567 39.3389C37.2592 38.1688 37.684 35.8399 36.5137 34.1476ZM34.0892 37.202C33.5755 37.5572 32.868 37.4286 32.5125 36.9145C32.157 36.4004 32.286 35.6931 32.8001 35.3376C32.9963 35.202 33.2208 35.1369 33.443 35.1369C33.803 35.1369 34.1572 35.3075 34.3768 35.6252C34.7323 36.1391 34.6033 36.8465 34.0892 37.202Z" fill="#9B999A"/>
<path d="M23.4345 17.9964L22.5647 20.4445L33.6099 24.3689L34.4797 21.9207L23.4345 17.9964Z" fill="#9B999A"/>
<path d="M34.2646 26.3875L32.8142 33.6706L35.362 34.178L36.8124 26.8948L34.2646 26.3875Z" fill="#9B999A"/>
<path d="M22.1264 30.2421L21.1438 32.6471L30.7009 36.5517L31.6835 34.1467L22.1264 30.2421Z" fill="#9B999A"/>
<path d="M19.2836 20.3303L18.3811 27.9581L20.9612 28.2634L21.8637 20.6356L19.2836 20.3303Z" fill="#9B999A"/>
<path d="M16.3798 9.30823L14.2429 10.786L18.4068 16.8071L20.5437 15.3293L16.3798 9.30823Z" fill="#9B999A"/>
<path d="M6.56017 3.49147L5.54102 5.88101L11.18 8.28609L12.1992 5.89655L6.56017 3.49147Z" fill="#9B999A"/>
</g>
<defs>
<clipPath id="clip0_1_85">
<rect width="40" height="40" fill="white"/>
</clipPath>
</defs>
</svg>
