<svg width="40" height="40" viewBox="0 0 40 40" fill="none" xmlns="http://www.w3.org/2000/svg">
<g clip-path="url(#clip0_24_206)">
<path d="M21.6292 5.70317C20.2657 2.36148 16.9889 0 13.1706 0C8.13302 0 4.03471 4.10882 4.03471 9.15906C4.03471 10.8832 4.47417 12.5933 5.14986 14.2039C3.67915 16.7372 2.8335 19.6769 2.8335 22.8121C2.8335 32.2896 10.5344 40 20 40C29.4657 40 37.1667 32.2896 37.1667 22.8121C37.1667 13.8848 30.3334 6.52768 21.6292 5.70317ZM32.7944 16.087C33.653 17.7184 34.2094 19.5327 34.3886 21.4551H27.5521C27.4919 19.5849 27.3074 17.7759 27.0091 16.087H32.7944ZM30.9474 13.3731H26.4018C26.1826 12.5789 25.9361 11.824 25.6603 11.1216C25.3723 10.3888 25.0577 9.72525 24.7204 9.13172C27.1559 9.97697 29.2977 11.4566 30.9474 13.3731ZM24.8375 21.4552H16.411C17.6319 20.0871 19.108 18.2193 20.2781 16.0871H24.2515C24.5734 17.7507 24.7729 19.564 24.8375 21.4552ZM23.5746 13.3731H21.5142C21.8759 12.365 22.1356 11.3251 22.2462 10.2729C22.5594 10.7973 22.8598 11.4152 23.1342 12.1139C23.2915 12.5145 23.4375 12.9362 23.5746 13.3731ZM13.1706 2.71407C16.7116 2.71407 19.5926 5.60525 19.5926 9.15906C19.5926 13.9363 15.1251 18.9613 13.1697 20.9319C11.2137 18.9646 6.74878 13.9486 6.74878 9.15906C6.74865 5.60525 9.62959 2.71407 13.1706 2.71407ZM9.9302 21.4552H5.61154C5.75215 19.9472 6.12575 18.506 6.69424 17.1673C7.73585 18.8498 8.92023 20.3235 9.9302 21.4552ZM7.20521 29.5364C6.34703 27.9055 5.7908 26.0914 5.61154 24.1692H12.4478C12.5078 26.0389 12.6921 27.8477 12.9907 29.5364H7.20521ZM9.05208 32.2505H13.5978C13.8171 33.0448 14.0635 33.7999 14.3395 34.5022C14.6274 35.2351 14.9422 35.8989 15.2793 36.4924C12.8439 35.647 10.7019 34.1671 9.05208 32.2505ZM23.1341 33.5099C22.2191 35.8391 21.0183 37.2859 20 37.2859C18.9816 37.2859 17.7806 35.8391 16.8657 33.5099C16.7084 33.1092 16.5621 32.6877 16.4251 32.2506H23.5749C23.4377 32.6875 23.2915 33.1092 23.1341 33.5099ZM15.7482 29.5364C15.4265 27.8731 15.2269 26.0601 15.1624 24.1692H24.8375C24.7729 26.0601 24.5734 27.8731 24.2515 29.5364H15.7482ZM24.7204 36.4924C25.0577 35.8989 25.3723 35.2351 25.6603 34.5022C25.9363 33.7999 26.1827 33.045 26.4018 32.2505H30.948C29.2981 34.1671 27.1561 35.6471 24.7204 36.4924ZM32.7948 29.5364H27.0091C27.3076 27.8477 27.4919 26.0389 27.5521 24.1692H34.3886C34.2094 26.0914 33.6532 27.9053 32.7948 29.5364Z" fill="#00FFAF"/>
<path d="M16.9098 9.15903C16.9098 7.08307 15.2323 5.39404 13.1706 5.39404C11.1089 5.39404 9.43164 7.08307 9.43164 9.15903C9.43164 11.2349 11.1089 12.9237 13.1706 12.9237C15.2323 12.9237 16.9098 11.2349 16.9098 9.15903ZM12.1458 9.15903C12.1458 8.57936 12.6056 8.10798 13.1706 8.10798C13.7357 8.10798 14.1955 8.57936 14.1955 9.15903C14.1955 9.73842 13.7357 10.2097 13.1706 10.2097C12.6056 10.2097 12.1458 9.73842 12.1458 9.15903Z" fill="#00FFAF"/>
</g>
<defs>
<clipPath id="clip0_24_206">
<rect width="40" height="40" fill="white"/>
</clipPath>
</defs>
</svg>
