<svg width="64" height="64" viewBox="0 0 64 64" fill="none" xmlns="http://www.w3.org/2000/svg">
<path fill-rule="evenodd" clip-rule="evenodd" d="M12.0494 14.817L18.1934 20.9763C14.947 23.6158 12.4136 27.1659 10.9255 31.252L10.6667 31.9624L10.9437 32.6661C12.5189 36.6685 15.1514 40.3459 18.4009 42.9976C22.1851 46.0859 26.9451 47.9355 32.1198 47.9355C35.8438 47.9355 39.3558 46.9771 42.4438 45.2864L49.1406 52L51.9508 49.1829L45.8067 43.0237L42.9779 40.188L24.5135 21.6779L21.5564 18.7135L14.8594 12L12.0494 14.817ZM21.0221 23.8119C18.3789 25.8651 16.2573 28.6544 14.9323 31.9083C16.2914 35.0307 18.4026 37.8619 20.9098 39.908C24.0274 42.4523 27.9121 43.9517 32.1198 43.9517C34.7374 43.9517 37.2281 43.3717 39.4867 42.3221L37.0001 39.8296C35.5577 40.7568 33.8406 41.2957 32.0001 41.2957C26.8787 41.2957 22.7272 37.1339 22.7272 32C22.7272 30.1549 23.2649 28.4336 24.1899 26.9875L21.0221 23.8119ZM27.1203 29.9251C26.8502 30.5624 26.7014 31.2632 26.7014 32C26.7014 34.9336 29.0737 37.3117 32.0001 37.3117C32.735 37.3117 33.4342 37.1627 34.07 36.892L27.1203 29.9251Z" fill="#00FFAF"/>
<path d="M31.8805 16.0645C29.9103 16.0645 27.997 16.3328 26.1728 16.8375C25.8563 16.9251 25.5427 17.0197 25.2319 17.1213L28.4834 20.3806C29.5834 20.1625 30.7189 20.0483 31.8805 20.0483C36.0882 20.0483 39.973 21.5478 43.0903 24.0919C45.5975 26.138 47.7087 28.9693 49.0679 32.0917C48.2333 34.1413 47.0821 36.008 45.6823 37.6221L48.4983 40.4451C50.4631 38.2325 52.0274 35.624 53.0749 32.748L53.3335 32.0376L53.0567 31.3339C51.4815 27.3315 48.849 23.6542 45.5994 21.0024C41.8151 17.9142 37.0551 16.0645 31.8805 16.0645Z" fill="#00FFAF"/>
</svg>
