<svg width="64" height="64" viewBox="0 0 64 64" fill="none" xmlns="http://www.w3.org/2000/svg">
<path d="M8.16453 19.319C8.28925 16.5937 8.71597 14.836 9.29307 13.344L9.30083 13.3234C9.87269 11.8052 10.7686 10.4298 11.9261 9.29302L11.9423 9.27707L11.9582 9.26083C13.096 8.10185 14.4718 7.20686 15.9887 6.63651L16.0149 6.62651C17.5035 6.04761 19.2577 5.62246 21.9853 5.49777M8.16453 19.319C8.03341 22.2309 8 23.1335 8 30.6834C8 38.2349 8.03157 39.1354 8.16445 42.048M8.16453 19.319V20.0535M21.9853 5.49777C24.8979 5.36489 25.8002 5.33331 33.3499 5.33331C40.8998 5.33331 41.8017 5.3667 44.7134 5.49779M21.9853 5.49777H22.7217M8.16445 42.048C8.28915 44.7757 8.71429 46.5298 9.2932 48.0184L9.3032 48.0448M8.16445 42.048L8.20912 42.2832M8.16445 42.048V41.3117M8.16453 20.0535C8.17472 19.8202 8.18571 19.5769 8.19747 19.3182C8.33413 16.3364 8.84104 14.5941 9.32421 13.3584C9.94955 11.7446 10.7417 10.5268 11.9519 9.31161C13.1022 8.13161 14.5005 7.2223 16.0456 6.64953C17.2759 6.17235 19.0135 5.66697 21.9841 5.53081C22.2437 5.51902 22.4877 5.50801 22.7217 5.49777M8.16453 20.0535C8.05661 22.5212 8.03341 23.8824 8.03341 30.6834C8.03341 37.4821 8.05661 38.8453 8.16445 41.3117M8.16453 20.0535L8.16445 41.3117M9.3032 48.0448C9.87355 49.5616 10.7685 50.9373 11.9275 52.0752L11.9437 52.0912L11.9597 52.1072C13.0965 53.2648 14.4719 54.1608 15.9902 54.7325L16.0128 54.741C17.5028 55.3189 19.2579 55.7442 21.9853 55.869M9.3032 48.0448L9.26901 47.8645M9.26901 47.8645L8.20912 42.2832M9.26901 47.8645C8.81885 46.6754 8.35533 45.016 8.20912 42.2832M9.26901 47.8645C9.2848 47.9064 9.30056 47.9474 9.31632 47.988C9.88717 49.5269 10.7917 50.9205 11.9649 52.0682C13.1123 53.2413 14.5053 54.1456 16.0437 54.7165C17.2783 55.1973 19.018 55.7 21.9849 55.836C24.979 55.9722 25.9041 56 33.3499 56C40.7961 56 41.7219 55.9722 44.7161 55.836C47.6865 55.6997 49.4241 55.1944 50.6545 54.7173C52.1937 54.1466 53.5875 53.2418 54.7353 52.0682C55.9081 50.9208 56.8123 49.528 57.3833 47.9896C57.8641 46.7549 58.3668 45.0154 58.5025 42.0485C58.6388 39.0544 58.6667 38.1274 58.6667 30.6834C58.6667 23.2392 58.6388 22.3116 58.5025 19.3174C58.3657 16.3314 57.8558 14.5911 57.3763 13.3598C56.7497 11.7419 55.955 10.5183 54.7334 9.2967C53.5142 8.07995 52.294 7.28475 50.6748 6.65742C49.439 6.1743 47.6977 5.66747 44.7161 5.53081C44.4566 5.51902 44.2129 5.50803 43.979 5.49779M8.20912 42.2832C8.20499 42.2061 8.20112 42.1282 8.19749 42.0493C8.18571 41.7898 8.17469 41.5458 8.16445 41.3117M43.979 5.49779H44.7134M43.979 5.49779L22.7217 5.49777M43.979 5.49779C41.5123 5.38995 40.1494 5.36673 33.3499 5.36673C26.5512 5.36673 25.188 5.38993 22.7217 5.49777M44.7134 5.49779C47.4393 5.62249 49.1971 6.04915 50.6894 6.6263L50.7099 6.63414C52.2281 7.20601 53.6035 8.10187 54.7403 9.25937L54.7561 9.27545L54.7724 9.29123C55.93 10.4281 56.8257 11.8039 57.3971 13.3225L57.4067 13.3482C57.9857 14.8368 58.411 16.591 58.5355 19.3186M58.5355 42.048C58.411 44.7754 57.9857 46.5306 57.4078 48.0205L57.3993 48.0432C56.8273 49.5616 55.9315 50.9368 54.7739 52.0736L54.7577 52.0896L54.7419 52.1058C53.6041 53.2648 52.2284 54.1597 50.7113 54.7301L50.6852 54.7402C49.1966 55.3192 47.4422 55.7442 44.7147 55.869M28.8414 41.5682C30.2707 42.1602 31.8027 42.465 33.3499 42.465C36.4747 42.465 39.4715 41.2237 41.6811 39.0144C43.8905 36.8048 45.1318 33.808 45.1318 30.6834C45.1318 27.5586 43.8905 24.5619 41.6811 22.3524C39.4715 20.1429 36.4747 18.9016 33.3499 18.9016C31.8027 18.9016 30.2707 19.2063 28.8414 19.7984C27.4118 20.3905 26.1131 21.2584 25.0191 22.3524C23.9251 23.4464 23.0572 24.7452 22.4651 26.1747C21.873 27.604 21.5683 29.1362 21.5683 30.6834C21.5683 32.2306 21.873 33.7626 22.4651 35.192C23.0572 36.6216 23.9251 37.9202 25.0191 39.0144C26.1131 40.1082 27.4118 40.9762 28.8414 41.5682ZM24.9929 22.3261C27.2094 20.1097 30.2155 18.8645 33.3499 18.8645C36.4846 18.8645 39.4907 20.1097 41.7073 22.3261C43.9238 24.5426 45.1689 27.5488 45.1689 30.6834C45.1689 33.8178 43.9238 36.824 41.7073 39.0405C39.4907 41.257 36.4846 42.5021 33.3499 42.5021C30.2155 42.5021 27.2094 41.257 24.9929 39.0405C22.7764 36.824 21.5312 33.8178 21.5312 30.6834C21.5312 27.5488 22.7764 24.5426 24.9929 22.3261ZM51.8241 16.1128C51.8241 17.0099 51.4675 17.8704 50.8334 18.5048C50.199 19.1392 49.3385 19.4956 48.4414 19.4956C47.5441 19.4956 46.6838 19.1392 46.0494 18.5048C45.415 17.8704 45.0585 17.0099 45.0585 16.1128C45.0585 15.2156 45.415 14.3552 46.0494 13.7208C46.6838 13.0864 47.5441 12.73 48.4414 12.73C49.3385 12.73 50.199 13.0864 50.8334 13.7208C51.4675 14.3552 51.8241 15.2156 51.8241 16.1128Z" stroke="#00FFAF" stroke-width="2.66667" stroke-linejoin="round"/>
</svg>
