<svg width="40" height="40" viewBox="0 0 40 40" fill="none" xmlns="http://www.w3.org/2000/svg">
<g clip-path="url(#clip0_24_212)">
<path d="M20 0C11.7751 0 5.08374 6.69401 5.08374 14.9222C5.08374 27.1815 18.5153 39.1518 19.0872 39.6555C19.348 39.8851 19.6739 40.0001 20 40.0001C20.326 40.0001 20.652 39.8852 20.9128 39.6555C21.4845 39.1519 34.9162 27.1817 34.9162 14.9222C34.9162 6.69401 28.2249 0 20 0ZM20 36.7258C17.0304 33.8482 7.84603 24.1966 7.84603 14.9222C7.84603 8.21724 13.2983 2.76229 20 2.76229C26.7017 2.76229 32.1539 8.21724 32.1539 14.9222C32.1539 24.1965 22.9695 33.8481 20 36.7258Z" fill="#00FFAF"/>
<path d="M20.0001 7.97076C16.1923 7.97076 13.0945 11.0891 13.0945 14.9221C13.0945 18.7553 16.1923 21.8735 20.0001 21.8735C23.8079 21.8735 26.9057 18.7553 26.9057 14.9221C26.9057 11.0891 23.8079 7.97076 20.0001 7.97076ZM20.0001 19.1112C17.7154 19.1112 15.8566 17.232 15.8566 14.9221C15.8566 12.6124 17.7154 10.7331 20.0001 10.7331C22.2848 10.7331 24.1435 12.6122 24.1435 14.9221C24.1435 17.232 22.2848 19.1112 20.0001 19.1112Z" fill="#00FFAF"/>
</g>
<defs>
<clipPath id="clip0_24_212">
<rect width="40" height="40" fill="white"/>
</clipPath>
</defs>
</svg>
