<svg width="39" height="39" viewBox="0 0 39 39" fill="none" xmlns="http://www.w3.org/2000/svg">
<path d="M33.3321 5.6344C29.6833 2.04268 24.8319 0.0647583 19.6716 0.0647583C14.5113 0.0647583 9.66009 2.04275 6.01133 5.6344C2.36256 9.22598 0.353027 14.0012 0.353027 19.0805C0.353027 24.1599 2.36249 28.935 6.01133 32.5266C9.66009 36.1181 14.5114 38.096 19.6716 38.096C24.8318 38.096 29.6832 36.1181 33.3321 32.5265C36.981 28.935 38.9905 24.1598 38.9905 19.0805C38.9905 14.0011 36.981 9.22598 33.3321 5.6344ZM34.3169 13.337C33.6132 13.3903 33.062 13.1892 32.364 12.9345C31.8848 12.7598 31.3416 12.5616 30.7048 12.437C28.9886 12.1013 27.2282 13.0223 26.2199 14.7833C25.9263 15.2961 24.5221 17.9365 25.717 19.5565C26.1649 20.1638 26.7643 20.5175 27.2459 20.8015C27.8922 21.1828 28.5604 21.577 29.3174 21.8777C29.4786 21.9417 29.6382 21.9997 29.7925 22.0557C30.2516 22.2226 30.7264 22.3951 30.8962 22.624C30.9914 22.7522 31.0907 23.041 31.023 23.688C30.9776 24.1209 30.8017 24.5932 30.6153 25.0933C30.1564 26.3253 29.5277 28.0127 31.0008 29.6695C31.2645 29.9659 31.562 30.217 31.885 30.4213C28.8201 33.6175 24.4787 35.6157 19.6716 35.6157C10.4087 35.6157 2.87285 28.198 2.87285 19.0805C2.87285 17.3237 3.15365 15.6305 3.67164 14.0408C3.94059 14.4196 4.24426 14.7564 4.53555 15.0582C5.46731 16.0238 6.49731 16.9063 7.60158 17.6844C7.68346 17.7422 7.80005 17.8243 7.8608 17.8781C7.90231 18.0607 7.88563 18.3238 7.86684 18.6233C7.82684 19.2582 7.77198 20.1276 8.2591 21.0426C8.57643 21.6386 9.02068 22.0973 9.41264 22.5021C9.79434 22.8964 10.124 23.2367 10.2161 23.5669C10.2818 23.8022 10.2538 24.1484 10.2242 24.5151C10.1834 25.02 10.1372 25.5925 10.2852 26.2083C10.4841 27.036 10.9588 27.6494 11.3777 28.1905C11.6417 28.5316 11.8911 28.8539 11.9993 29.1489C12.0827 29.3766 12.1164 29.6835 12.152 30.0084C12.1877 30.3341 12.2282 30.7033 12.3271 31.0835C12.6233 32.2226 13.5839 33.3157 14.8801 33.3157C14.9491 33.3157 15.0194 33.3125 15.0903 33.3061C16.4325 33.1854 17.3542 32.005 17.4955 30.2252C17.5183 29.9372 17.5785 29.1778 17.7278 29.0103C17.774 28.9922 17.8865 28.9651 17.97 28.945C18.325 28.8595 18.8615 28.7301 19.3048 28.2832C20.1212 27.4602 19.8961 26.4284 19.7616 25.8119C19.7211 25.6263 19.6752 25.4158 19.6778 25.3061C19.685 25.0123 20.2963 24.4983 20.5265 24.3048L22.8293 22.3687C23.7259 21.6224 24.0613 20.3242 23.6639 19.1385C23.3801 18.292 22.7521 17.5308 21.8475 16.9372C20.7315 16.205 19.5249 16.0173 18.5376 16.4222C18.2019 16.5598 17.9304 16.7487 17.7123 16.9004C17.6462 16.9464 17.5592 17.0069 17.4884 17.0511C17.4559 17.0155 17.4184 16.9662 17.3836 16.9033C17.3006 16.7534 17.226 16.5588 17.147 16.3528C17.043 16.0816 16.9252 15.7743 16.7508 15.4649C15.8175 13.8096 14.293 13.6259 13.1799 13.4919C12.9896 13.4691 12.8099 13.4474 12.6307 13.4201C11.6936 13.2774 10.7404 12.8724 10.0086 12.3152C10.2768 12.2203 10.6046 12.1471 10.781 12.1539C10.9087 12.158 11.0584 12.1748 11.217 12.1926C11.6715 12.2436 12.237 12.307 12.8464 12.1388C13.4617 11.9691 13.9153 11.6203 14.2797 11.3401C14.3837 11.2602 14.4819 11.1847 14.5724 11.1221C14.743 11.0043 15.0748 10.977 15.4261 10.9482C16.3009 10.8763 18.1214 10.7267 18.3791 8.23516C18.5066 7.00241 18.0491 5.89877 17.6815 5.01194C17.3758 4.27419 17.0792 3.54194 16.8204 2.78421C17.7474 2.62778 18.6999 2.54511 19.6718 2.54511C21.7571 2.54511 23.7544 2.92223 25.5986 3.60879C25.5433 3.66228 25.4879 3.71568 25.4328 3.76894C24.8727 4.30955 24.2936 4.86865 23.8951 5.3765C23.7266 5.59125 23.4447 5.95054 23.3615 6.46797C23.2206 7.34581 23.7539 8.0202 23.9817 8.3081C24.32 8.73618 24.8866 9.45268 25.8225 9.68243C26.0315 9.73368 26.2333 9.75567 26.4269 9.75567C27.1321 9.75567 27.7319 9.46501 28.1969 9.23957C28.4646 9.10981 28.7415 8.97558 28.907 8.96251C29.0646 8.94981 29.3427 9.04006 29.6122 9.12696C30.0057 9.25398 30.4516 9.39779 30.9769 9.41658C31.6679 9.44094 32.2808 9.19456 32.7617 8.72934C33.8773 10.0934 34.7777 11.6345 35.4119 13.3028C35.3221 13.3051 35.2307 13.3064 35.149 13.3074C34.9018 13.3105 34.6219 13.314 34.3169 13.337Z" fill="#00FFAF"/>
</svg>
