<svg width="64" height="64" viewBox="0 0 64 64" fill="none" xmlns="http://www.w3.org/2000/svg">
<path d="M28.5581 55.9721C28.4118 55.9721 27.9034 55.9127 27.4312 55.867C22.9818 55.4327 18.6856 53.7065 15.1057 50.9175L14.5864 50.5106L14.8333 50.2226C15.0481 49.9712 15.0893 49.9438 15.1761 50.0032C15.231 50.0489 15.5098 50.2546 15.7987 50.4791C21.3393 54.7616 28.8045 56.2743 35.6451 54.501C38.6682 53.7175 41.5277 52.331 43.9359 50.4809C46.4223 48.5714 48.5709 46.1065 50.0986 43.4107C51.6566 40.6615 52.6751 37.4002 52.9782 34.192C53.0833 33.083 53.0833 30.9445 52.9782 29.8354C52.777 27.6887 52.1983 25.2832 51.4413 23.4295L51.2355 22.9211L51.5144 22.6377C51.6698 22.4823 51.8116 22.3726 51.8298 22.3954C51.903 22.4731 52.4607 23.9492 52.7025 24.7035C54.2202 29.4386 54.2106 34.6624 52.6568 39.4039C50.682 45.5026 46.2989 50.5989 40.5622 53.466C37.9651 54.7643 35.2918 55.5415 32.2897 55.8711C31.5793 55.9488 29.1048 56.0128 28.5416 55.9671L28.5581 55.9721ZM11.551 53.4199C11.551 53.3742 11.5053 53.1959 11.4961 53.0084L11.4504 52.6702L11.7521 52.2724C13.6461 49.7568 16.852 46.7031 20.2792 44.1508C22.388 42.5806 28.1965 38.5801 30.4141 37.1712C30.7615 36.9518 31.0449 36.7506 31.0449 36.7278C31.0449 36.7278 29.9286 36.6821 28.564 36.6821H26.0835L26.5041 36.2569L26.9247 35.8318L26.6961 35.2356L26.4676 34.6391H24.986H23.5048L23.4179 35.2292L23.3265 35.8194L23.4499 36.0069C23.5185 36.112 23.6511 36.2949 23.7471 36.4229L23.9162 36.6514H22.5576H21.1985L21.5459 36.336C21.7379 36.1623 21.9574 35.9657 22.0346 35.8926C22.1489 35.7874 22.2495 35.5131 22.5645 34.4462L22.953 33.1291L22.4598 32.2459C19.7434 27.3874 18.4022 22.8832 18.8323 20.0667C19.0975 18.3236 19.8756 17.4276 21.4906 16.9993C22.0936 16.8393 23.273 16.8256 23.9592 16.9536C26.9969 17.5982 30.4982 20.1892 34.2714 24.586C34.5777 24.9426 35.0842 25.5209 35.3997 25.8738C39.231 30.1591 42.1028 35.8798 42.7523 40.5211C42.8529 41.2443 42.8392 42.7771 42.7066 43.3586C42.4324 44.7566 41.7956 45.7092 40.8232 46.1851C40.207 46.4868 39.8568 46.5646 39.1034 46.5691C38.0918 46.5691 37.1327 46.3497 35.9103 45.8226C35.3133 45.5666 34.3542 45.0601 34.3542 45.0034C34.3542 45.0034 34.3999 44.9257 34.4228 44.8754C34.4867 44.7886 34.5233 44.7977 34.938 45.0308C35.9624 45.5977 37.1908 46.0553 38.1219 46.2176C38.7103 46.3182 39.7631 46.2953 40.1585 46.1673C40.6769 45.9982 41.0362 45.7833 41.4166 45.4048C43.2877 43.5465 42.8406 39.0162 40.2614 33.7092C38.8132 30.7287 37.023 28.0932 34.756 25.6059C34.3537 25.1625 33.7411 24.4873 33.3974 24.1033C30.2842 20.6295 27.3965 18.405 24.9091 17.5657C24.0127 17.264 23.5871 17.1908 22.7089 17.1908C22.0177 17.1913 21.8774 17.1908 21.4499 17.3371C20.4479 17.6388 19.86 18.0804 19.5158 18.7863C19.1638 19.5113 19.0303 20.3305 19.0769 21.5282C19.1683 23.9314 20.1123 26.9541 21.8408 30.3826C22.5014 31.6933 23.0019 32.587 23.0623 32.5627C23.108 32.5627 23.3594 31.7202 23.6575 30.715L24.2029 28.8873L23.6986 28.347L23.1949 27.8066H25.2163C26.3281 27.8066 27.2561 27.8112 27.2785 27.8523C27.2785 27.8523 27.9747 29.632 28.7752 31.7568L30.2303 35.6206L30.7286 36.122L31.2269 36.624L32.5626 35.7536C34.1101 34.7456 36.0657 33.4309 37.6104 32.3607C38.2061 31.9493 38.713 31.6096 38.7377 31.6082C38.7834 31.6055 39.0486 32.0471 39.0166 32.0736C39.0166 32.0736 37.3796 33.1959 35.402 34.5486C26.0543 40.9426 20.6806 44.6528 19.8116 45.312C17.1144 47.3582 14.2189 50.1723 12.0401 52.864C11.7658 53.2069 11.5382 53.4409 11.5258 53.4007L11.551 53.4199ZM26.0538 33.3678C25.6378 32.3273 24.8502 30.4608 24.8264 30.4608C24.8264 30.4608 24.671 30.8677 24.5155 31.36C24.3601 31.8542 24.1544 32.5184 24.0547 32.8357L23.8719 33.4126H24.9713C25.5766 33.4126 26.0639 33.4135 26.0538 33.3678ZM24.4273 32.7017C24.6422 31.9753 24.8525 31.3769 24.8863 31.4112C24.932 31.4615 25.3654 32.4914 25.3654 32.5536C25.3654 32.5993 24.5402 32.8233 24.4246 32.8233C24.4246 32.8233 24.4246 32.7657 24.4273 32.7017ZM21.8769 51.5195C21.8769 51.3641 21.6438 50.1728 21.6026 50.123C21.5569 50.0773 21.2186 50.0087 20.8026 49.9401C20.3866 49.8715 20.0579 49.8121 20.0675 49.803C20.0675 49.803 20.4104 49.7344 20.8063 49.675C21.204 49.611 21.5555 49.5333 21.588 49.4967C21.6337 49.451 21.7023 49.1172 21.7663 48.7351C21.8714 48.1294 21.9309 47.8715 21.9309 48.0411C21.9309 48.256 22.164 49.4459 22.2143 49.4976C22.26 49.5433 22.6166 49.6119 23.0275 49.6713C23.439 49.7307 23.7832 49.7902 23.7937 49.7993C23.7937 49.7993 23.4646 49.8725 23.0335 49.9365C22.5946 50.005 22.2294 50.0873 22.1965 50.1284C22.1507 50.1742 22.0913 50.4942 22.0319 50.8571C21.9405 51.4208 21.8769 51.7001 21.8769 51.5195ZM12.8323 48.8932C10.2632 46.2926 8.33863 43.1913 7.17658 39.7778C7.02572 39.339 6.90229 38.9586 6.90229 38.9335C6.90229 38.8878 7.54549 38.5403 7.57018 38.5723C7.57018 38.5723 7.71646 38.9883 7.88103 39.4747C8.91875 42.56 10.6225 45.4158 12.8593 47.8194C13.161 48.144 13.5688 48.5577 13.7645 48.7383L14.121 49.0674L13.8787 49.3371C13.7462 49.4834 13.6182 49.6114 13.5907 49.6114C13.545 49.6142 13.2287 49.2937 12.8323 48.8932ZM37.0458 49.4761C36.9818 49.4121 37.0001 49.2018 37.0915 49.1333C37.1555 49.083 37.2058 49.0784 37.3064 49.1333C37.439 49.1927 37.4664 49.275 37.407 49.435C37.3613 49.5218 37.1144 49.5538 37.0458 49.4852V49.4761ZM40.9485 48.9188C40.7428 48.8411 40.7565 48.4457 40.9485 48.432C41.2136 48.432 41.2959 48.4869 41.273 48.7291C41.273 48.9029 41.1085 48.9851 40.9302 48.9211L40.9485 48.9188ZM23.3818 47.3947C23.2858 47.2805 23.3818 47.0976 23.5098 47.0976C23.6881 47.0976 23.7796 47.221 23.7018 47.3627C23.6333 47.4907 23.4733 47.509 23.3818 47.4084V47.3947ZM20.7807 47.0656C20.6253 46.9102 20.7167 46.7227 20.9453 46.7227C21.119 46.7227 21.1967 46.8873 21.0915 47.0382C20.9955 47.1753 20.895 47.1845 20.7807 47.0839V47.0656ZM28.6815 46.9879C28.5489 46.8782 28.5763 46.7593 28.7638 46.6405C28.9009 46.5536 29.1021 46.7685 29.0243 46.9193C28.9375 47.0793 28.8186 47.1022 28.6815 46.9879ZM45.0253 45.3632C44.9293 45.0935 44.911 45.0798 44.6047 44.9701L44.2847 44.8558L44.5636 44.7643C44.8607 44.6683 44.9476 44.5678 45.0536 44.2377C45.1313 43.9908 45.1816 44.0137 45.2685 44.3291C45.3462 44.608 45.3782 44.6446 45.6708 44.736C45.7896 44.7817 45.9039 44.8183 45.9222 44.8366C45.9222 44.8366 45.8216 44.928 45.6479 44.992C45.3553 45.1063 45.3279 45.1291 45.2685 45.3531C45.2228 45.4857 45.1816 45.6046 45.1587 45.6183C45.1587 45.6183 45.0719 45.5177 45.017 45.3623L45.0253 45.3632ZM33.0234 45.4089C32.9549 45.3403 32.9777 45.1346 33.0691 45.1026C33.2109 45.0478 33.316 45.1483 33.3023 45.2763C33.3023 45.4135 33.1103 45.4958 33.0234 45.4089ZM23.0911 45.2535C22.9037 45.0661 23.0874 44.7538 23.3517 44.8192C23.5071 44.8649 23.5894 45.0843 23.5071 45.2215C23.4339 45.3403 23.2008 45.3586 23.0957 45.2672L23.0911 45.2535ZM46.7834 44.8878C46.7377 44.8329 46.7377 44.8009 46.7834 44.7506C46.8383 44.7049 46.8703 44.7049 46.9206 44.7506C46.9663 44.8055 46.9663 44.8375 46.9206 44.8878C46.8657 44.9335 46.8337 44.9335 46.7834 44.8878ZM15.7901 44.4443C15.6301 44.2843 15.7443 43.9918 15.9683 43.9918C16.0826 43.9918 16.2426 44.1563 16.2426 44.2706C16.2426 44.3758 16.0735 44.5312 15.9592 44.5312C15.9135 44.5312 15.8358 44.4809 15.7901 44.4443ZM39.7201 43.9918C39.6698 43.9095 39.7201 43.8318 39.8573 43.8318C39.9258 43.8318 39.9624 43.8775 39.9624 43.9369C39.9624 44.0512 39.7841 44.0923 39.7201 43.9918ZM44.4159 43.8409C44.2193 43.7723 44.201 43.5301 44.3702 43.4432C44.4708 43.3975 44.521 43.3975 44.585 43.4432C44.7679 43.5941 44.6307 43.9067 44.3976 43.8318L44.4159 43.8409ZM18.9997 43.7495C18.9539 43.6443 18.9997 43.5575 19.1368 43.5575C19.2419 43.5575 19.3014 43.6489 19.2602 43.7586C19.2145 43.85 19.0362 43.8409 18.9997 43.7586V43.7495ZM14.9315 43.4203C14.831 43.3198 14.8218 43.1232 14.9315 43.0318C15.0733 42.8901 15.4038 43.0318 15.4038 43.2146C15.4038 43.3152 15.2118 43.5072 15.1112 43.5072C15.0655 43.5072 14.9969 43.4615 14.9512 43.4249L14.9315 43.4203ZM29.9268 42.331C29.7942 42.2807 29.5748 42.1664 29.4436 42.0841C29.1281 41.883 28.5736 41.3285 28.452 41.0903C28.4017 40.9851 28.228 40.7429 28.0726 40.5458L27.7846 40.1893L28.0726 39.9927L28.3606 39.7961L28.6349 40.0155C28.7857 40.1344 29.0874 40.3264 29.2977 40.4361C29.9935 40.8018 30.7295 41.6585 30.7295 42.1047C30.7295 42.4247 30.3958 42.5207 29.9249 42.3378L29.9268 42.331ZM15.4751 42.235C15.4751 42.235 15.4294 42.1527 15.4294 42.0978C15.4294 42.0293 15.4751 41.9972 15.5665 41.9972C15.6762 41.9972 15.7037 41.9972 15.6854 42.1161C15.6854 42.235 15.5391 42.3035 15.4659 42.2304L15.4751 42.235ZM12.9667 41.9698C12.9073 41.9013 12.9119 41.8693 12.9667 41.7961C13.049 41.7138 13.0627 41.7138 13.145 41.7961C13.2182 41.8693 13.2227 41.9013 13.145 41.9698C13.0993 42.0155 13.0582 42.0521 13.0353 42.0521C13.0353 42.0521 12.9622 42.0064 12.9256 41.9698H12.9667ZM21.6991 41.8738C21.6534 41.7732 21.7951 41.659 21.9048 41.7001C21.9505 41.7001 21.9825 41.7733 21.9734 41.8281C21.9734 41.947 21.7402 41.9835 21.6991 41.8738ZM41.2735 41.8738C41.2735 41.8281 41.2739 41.7778 41.3192 41.7321C41.4152 41.6361 41.5203 41.6818 41.5203 41.8281C41.5203 41.9424 41.3375 41.9744 41.2781 41.8738H41.2735ZM46.532 41.8738C46.4269 41.7961 46.4589 41.6453 46.5914 41.5904C46.7012 41.5447 46.8429 41.691 46.8017 41.8007C46.756 41.9241 46.6417 41.9515 46.532 41.8738ZM47.2602 41.5493C47.2602 41.339 47.0225 40.1902 46.9677 40.1348C46.922 40.0891 46.5608 40.0069 46.1521 39.9429C45.3279 39.8103 45.3311 39.8011 46.2938 39.6686C46.6321 39.6228 46.9389 39.5543 46.9727 39.5177C47.0184 39.472 47.087 39.1429 47.151 38.7589C47.2516 38.1541 47.311 37.8948 47.3155 38.064C47.3192 38.3063 47.5396 39.4619 47.5944 39.5141C47.6401 39.5598 47.9556 39.6192 48.3075 39.6695C49.2401 39.7975 49.2593 39.8249 48.4904 39.9346C48.1247 39.9849 47.759 40.0535 47.6794 40.0855C47.5194 40.1449 47.5194 40.1449 47.3914 40.9888C47.3183 41.4702 47.2634 41.712 47.2634 41.5538L47.2602 41.5493ZM39.5496 41.3801C39.5039 41.2612 39.6456 41.1835 39.7416 41.275C39.7873 41.3207 39.801 41.3755 39.7873 41.4075C39.7325 41.4944 39.5953 41.4761 39.5588 41.3618L39.5496 41.3801ZM47.6383 41.2795C47.5926 41.2338 47.5834 41.147 47.5926 41.0784C47.5926 40.9778 47.6429 40.955 47.7983 40.955C47.9674 40.955 47.9903 40.955 48.004 41.1104C48.0497 41.339 47.7846 41.4533 47.6383 41.2795ZM41.1089 40.2546C41.0358 40.1449 41.0312 40.09 41.0632 39.9849C41.1775 39.7381 41.6086 39.8341 41.6086 40.1038C41.6086 40.2089 41.4074 40.3872 41.2886 40.3872C41.2292 40.3872 41.1423 40.3232 41.092 40.25L41.1089 40.2546ZM44.399 40.2546C44.2847 40.1906 44.2801 39.9758 44.399 39.8843C44.5087 39.7929 44.7464 39.8843 44.7464 40.0306C44.745 40.2226 44.5681 40.3415 44.4081 40.25L44.399 40.2546ZM4.73132 39.3207C5.40149 38.7671 7.15235 37.6686 8.61521 36.8841C9.66115 36.3232 11.1057 35.6325 11.0559 35.717C11.0559 35.7627 10.873 35.9593 10.6902 36.1783C10.457 36.4663 10.3656 36.6171 10.3656 36.7328C10.3656 36.8882 10.3199 36.9065 9.37269 37.333C8.15029 37.8784 6.88446 38.5179 5.97018 39.0528C5.29498 39.4459 5.26846 39.4597 4.92378 39.4551L4.57178 39.4532L4.73132 39.3207ZM26.6911 38.72C26.3711 38.2994 25.172 36.5888 24.569 35.6878L24.0753 34.9499H24.2765C24.4319 34.9499 24.4959 34.9956 24.5507 35.0688C24.697 35.3065 25.7256 36.7383 26.4991 37.7742L27.2872 38.8293L27.1638 38.9298C27.0952 38.9847 27.0129 39.0304 26.9809 39.0304C26.9352 39.0304 26.8237 38.8937 26.6911 38.72ZM43.9327 38.816C43.9327 38.6697 44.0333 38.624 44.1338 38.72C44.2298 38.816 44.1841 38.9211 44.0378 38.9211C43.9693 38.9211 43.9327 38.8754 43.9327 38.816ZM6.56263 37.6425C6.47121 37.4871 6.14206 35.6201 6.01086 34.4928C5.87829 33.365 5.87829 30.6336 6.00995 29.5022C6.46252 25.5977 7.70778 22.0695 9.73063 18.965C14.8259 11.146 23.8271 7.00479 33.0632 8.22993C38.74 8.98331 44.0356 11.8126 47.8184 16.1129C48.6527 17.0615 49.9432 18.7726 49.9432 18.9303C49.9432 18.9897 49.4449 19.3326 49.3626 19.3326C49.3626 19.3321 49.2164 19.1726 49.0838 18.9714C46.9252 15.776 43.8852 13.0894 40.4173 11.3111C34.5073 8.28159 27.5231 7.95153 21.2868 10.4064C20.3926 10.7584 18.745 11.5776 17.8906 12.0955C13.1048 14.9943 9.51121 19.5095 7.78412 24.7945C6.58823 28.4544 6.33041 32.4846 7.04949 36.2894C7.12263 36.6871 7.19578 37.0761 7.20949 37.1525C7.20949 37.2759 7.20949 37.3125 6.90778 37.4862C6.72949 37.5913 6.57635 37.6654 6.56263 37.6425ZM32.5128 37.2265V36.9065L33.3439 36.3351L34.175 35.7637L34.9279 35.8094C35.5341 35.8094 35.7411 35.8094 35.9885 35.7499C36.4886 35.6037 36.8328 35.2229 36.8328 34.8133C36.8328 34.699 36.7734 34.603 36.618 34.4658L36.4031 34.2738L36.5768 34.1458C36.9288 33.8853 38.986 32.4923 39.0568 32.4654C39.1025 32.4654 39.1848 32.5202 39.2717 32.6482C39.6557 33.2274 39.7622 33.9543 39.5734 34.6976C39.45 35.1881 39.3128 35.4336 38.9284 35.8427C38.0282 36.8059 36.649 37.2736 35.1647 37.1182C34.6609 37.0633 33.7764 36.8804 33.4993 36.7662C33.4445 36.7204 33.2982 36.8347 33.0696 37.0405C32.8776 37.2096 32.6673 37.397 32.6001 37.4564L32.4767 37.5616V37.2416L32.5128 37.2265ZM10.7149 36.6784C10.7149 36.6784 10.884 36.4315 11.0897 36.1819L11.4646 35.7248L11.4659 32.3159L11.4669 28.9065L11.1469 28.4087C10.9686 28.1344 10.8269 27.8999 10.8269 27.8871C10.8269 27.8871 11.6575 27.8414 12.6723 27.8414H14.5178L16.0936 30.4951L17.6689 33.1488V30.8114V28.4745L17.3946 28.1591L17.1203 27.8437H18.2522C18.8753 27.8437 19.3846 27.8436 19.3846 27.8894C19.3846 27.8894 19.2657 28.0951 19.1149 28.3145L18.8451 28.7122V32.2345V35.7568L19.2474 36.1957L19.6497 36.6345H17.8143C16.8049 36.6345 15.9624 36.6304 15.9418 36.5888C15.9418 36.5888 15.2227 35.3646 14.3894 33.9186C13.556 32.4722 12.8529 31.2658 12.8269 31.2379C12.7811 31.1922 12.7811 32.1518 12.7811 33.4816V35.776L13.1011 36.2011C13.2794 36.4343 13.4211 36.6354 13.4211 36.6537C13.4211 36.6537 12.8054 36.6994 12.0525 36.6994C11.3 36.6994 10.6842 36.6994 10.6842 36.6537L10.7149 36.6784ZM40.6591 36.3721C40.8191 36.2121 40.9654 36.0933 40.9837 36.1161C40.9837 36.1161 41.0431 36.2304 41.0751 36.3173C41.1208 36.4041 41.1482 36.5184 41.1665 36.5733C41.2122 36.6601 41.1633 36.6693 40.7871 36.6693H40.3665L40.6591 36.3767V36.3721ZM41.8266 35.8377C41.6575 35.3806 41.5158 34.9856 41.5158 34.9568C41.5158 34.9111 41.9363 33.5584 42.4552 31.9131C43.3613 29.0263 43.391 28.9175 43.3014 28.8096C43.2511 28.7456 43.0271 28.5033 42.8045 28.2683L42.4022 27.8386H44.3843C45.4746 27.8386 46.3821 27.8432 46.4013 27.8843C46.4013 27.8843 47.1542 29.664 48.0314 31.7893L49.6269 35.653L50.1736 36.176L50.7199 36.6994H47.9844H45.2488L45.6648 36.2834C45.8934 36.0549 46.0808 35.84 46.0808 35.8112C46.0808 35.7655 45.9848 35.514 45.8751 35.2219L45.6648 34.6884H44.1741H42.6829L42.532 35.2247C42.4497 35.5218 42.3811 35.8002 42.3811 35.8473C42.3811 35.893 42.5 36.0942 42.6509 36.2862C42.7971 36.4827 42.9206 36.6519 42.9206 36.6702C42.9206 36.6702 42.7469 36.7159 42.532 36.7159H42.1434L41.8372 35.8871L41.8266 35.8377ZM45.2209 33.3531C45.2209 33.2251 44.0113 30.4 43.9807 30.4553C43.9258 30.5513 43.0742 33.2622 43.0742 33.3335C43.0742 33.3792 43.3942 33.3929 44.1475 33.3929C44.7377 33.3929 45.2209 33.3929 45.2209 33.3472V33.3531ZM32.5023 35.0532V34.6738L32.7491 34.8521C32.8863 34.9481 33.0051 35.0441 33.0189 35.067C33.0189 35.067 32.9183 35.1767 32.772 35.2681L32.5023 35.4327V35.0532ZM19.1939 33.2878V32.6455L19.6634 32.5038C19.924 32.426 20.5165 32.2432 20.985 32.0969C21.4536 31.9506 21.8563 31.85 21.8797 31.8729C21.9757 31.9735 22.6367 33.1876 22.6093 33.2151C22.5544 33.2699 19.4678 33.9296 19.2717 33.9296C19.2077 33.9296 19.1939 33.8112 19.1939 33.2878ZM34.5416 33.4249C33.2977 32.9769 32.5965 32.3657 32.3336 31.499C32.1096 30.7616 32.2879 29.664 32.7359 29.0633C33.161 28.4919 33.6735 28.0855 34.2216 27.8889C34.5233 27.7792 35.2762 27.6192 35.6954 27.5735L36.0154 27.5278L36.34 27.9438C36.7011 28.411 37.0646 28.9106 37.0641 28.9371C37.0641 28.9371 36.7578 28.9371 36.3802 28.9371C35.5697 28.9371 35.3965 29.0057 35.1994 29.3943C35.0714 29.6503 35.0349 30.1257 35.1354 30.3095C35.236 30.5015 35.6433 30.6752 36.4223 30.8672C37.2136 31.0592 38.265 31.4971 38.1617 31.5895C38.116 31.6352 37.3699 32.1458 35.876 33.1689C35.5011 33.4249 35.1875 33.632 35.1784 33.6283C35.1784 33.6247 34.8813 33.5232 34.5439 33.3998L34.5416 33.4249ZM22.8721 31.6791C22.7944 31.5236 22.7944 31.5236 22.959 31.4642C23.0504 31.4185 23.1327 31.4048 23.1418 31.4048C23.1418 31.4048 23.1418 31.5008 23.0961 31.6196C23.0321 31.8757 22.9818 31.8894 22.8721 31.6791ZM29.0106 31.4185C28.9649 31.3362 28.8826 31.0756 28.7912 30.8416C28.6998 30.6039 28.5581 30.2281 28.4758 30.0027L28.3249 29.5913L29.5693 29.1209C30.8836 28.6235 33.8541 27.4459 34.8232 27.0377L35.3992 26.7954L35.6141 27.0469L35.8289 27.2983L35.3498 27.344C34.3798 27.4217 33.6415 27.7143 33.0568 28.261C32.4488 28.8279 32.159 29.376 31.9757 30.3072L31.8797 30.7835L31.6419 30.8567C30.7862 31.1173 29.2008 31.5721 29.1391 31.5721C29.0934 31.5721 29.0385 31.5035 29.0111 31.4258L29.0106 31.4185ZM39.6653 31.2951C39.5921 31.1762 39.5418 31.0574 39.5601 31.0299C39.5601 30.9842 39.8756 30.7785 40.2193 30.5275C40.5667 30.2807 41.2666 29.7591 41.7786 29.3723C42.2906 28.9838 42.7267 28.6692 42.7478 28.6692C42.7478 28.6692 42.8438 28.747 42.9123 28.8384C43.0312 28.9984 43.0358 29.0212 42.9626 29.227C42.8941 29.4281 42.7706 29.5241 41.3841 30.4763C40.5581 31.0441 39.8637 31.5104 39.8422 31.5118C39.8422 31.5131 39.743 31.4139 39.6653 31.2951ZM38.7108 29.7275C38.5782 29.5127 38.212 28.9787 37.8989 28.5394C37.588 28.1006 37.3379 27.7321 37.3475 27.722C37.3475 27.722 37.5487 27.7678 37.7773 27.8181L38.1887 27.9278L38.591 27.7038L38.9933 27.4798V28.7959C38.9933 29.52 38.9933 30.112 38.9933 30.112C38.9933 30.112 38.8607 29.9383 38.7281 29.7234L38.7108 29.7275ZM35.4001 29.5858C35.4001 29.4944 35.6516 29.3161 35.8573 29.2613C36.063 29.2064 36.5165 29.179 36.4689 29.2155C36.4141 29.2704 35.401 29.6133 35.401 29.5767L35.4001 29.5858ZM39.3178 27.7618C39.3178 27.4235 39.3178 27.323 39.2173 27.2526C39.071 27.12 38.9704 27.1429 38.4863 27.4034L38.0429 27.6457L37.5656 27.536L37.0883 27.4263L36.6952 26.9408C36.4804 26.6756 36.3204 26.4361 36.3478 26.4128C36.3935 26.3671 36.9114 26.1431 37.546 25.8619C42.154 23.8304 46.2605 21.6846 49.674 19.525C50.6001 18.939 51.5222 18.2112 53.6182 16.4114C56.404 14.0192 58.2701 12.1257 59.1578 10.7908C59.295 10.5897 59.4093 10.4206 59.423 10.4206C59.4916 10.4206 58.8648 11.8555 58.3679 12.8338C55.9574 17.578 51.551 22.7209 46.26 26.9659L45.6077 27.4889H44.9091H44.2102L44.7277 27.0592C45.2986 26.5856 46.9444 24.976 47.0344 24.8036C47.0801 24.7259 46.6824 24.8996 45.6333 25.4222C43.8509 26.3122 41.5076 27.3522 39.6004 28.101L39.3169 28.2107V27.7902L39.3178 27.7618ZM24.143 23.451C24.1887 23.3504 24.2938 23.3367 24.2938 23.451C24.2938 23.4967 24.2481 23.5378 24.207 23.5378C24.1613 23.5378 24.1293 23.4921 24.143 23.4738V23.451ZM24.3304 22.1728C24.3304 22.1271 24.2573 21.8391 24.2115 21.5291C24.1613 21.2183 24.0927 20.9161 24.0515 20.8558C23.9967 20.7643 23.8641 20.7278 23.3457 20.6455C22.3743 20.4946 22.3725 20.49 23.2177 20.362C23.6383 20.298 24.0054 20.2249 24.0323 20.1975C24.0781 20.1518 24.1329 19.85 24.1923 19.4825C24.2518 19.1168 24.3203 18.7972 24.3432 18.7744C24.3432 18.7744 24.4255 19.035 24.4804 19.4057C24.5352 19.776 24.6038 20.1161 24.6403 20.1623C24.6861 20.2217 24.9375 20.2811 25.5016 20.3588C26.3885 20.4823 26.3857 20.4914 25.3827 20.6377C24.9485 20.7017 24.7002 20.7657 24.6499 20.8206C24.6042 20.8663 24.5265 21.2091 24.4671 21.5767C24.4077 21.947 24.3482 22.2112 24.33 22.1668L24.3304 22.1728ZM22.3587 21.1785C22.2628 21.0596 22.3555 20.9134 22.5279 20.9134C22.633 20.9134 22.6559 20.9591 22.6559 21.0734C22.6559 21.1968 22.6102 21.2379 22.5462 21.2516C22.4867 21.2516 22.3953 21.2059 22.3587 21.1785ZM21.7329 20.1531C21.6872 20.0388 21.7832 19.8926 21.9021 19.8926C21.9569 19.8926 22.0209 19.9383 22.0529 19.9794C22.1352 20.1074 22.0529 20.24 21.9021 20.24C21.8243 20.24 21.7512 20.1943 21.7329 20.1531ZM34.6047 19.4427C34.559 19.397 34.5407 19.3376 34.5498 19.269C34.5956 19.0907 34.8378 19.0542 34.8881 19.2187C34.9475 19.4107 34.7738 19.5479 34.6047 19.4427ZM31.3965 16.997C31.3507 16.8919 31.3965 16.805 31.5336 16.805C31.6388 16.805 31.721 16.9422 31.6662 17.0244C31.6205 17.1022 31.4285 17.0793 31.3965 16.9787V16.997ZM26.0273 16.9376C26.0273 16.8919 26.0273 16.8142 26.0822 16.7639C26.1599 16.6862 26.1782 16.6862 26.2513 16.7639C26.297 16.8096 26.3199 16.8873 26.297 16.9376C26.2513 17.0519 26.0685 17.0564 26.0273 16.9376ZM35.0285 15.3412C34.9599 14.939 34.8776 14.5883 34.8456 14.5627C34.7999 14.517 34.4616 14.4622 34.0634 14.3982C33.4088 14.293 33.1629 14.2336 33.3677 14.229C33.6374 14.2272 34.7853 14.0096 34.8406 13.9502C34.8863 13.9044 34.9594 13.5662 35.0234 13.1826C35.0874 12.7986 35.1469 12.4786 35.156 12.4686C35.156 12.4686 35.2063 12.624 35.348 13.5136C35.3937 13.7239 35.444 13.925 35.4806 13.9616C35.54 14.0119 36.6458 14.2039 37.0088 14.2313C37.1642 14.2313 36.8077 14.3227 36.1736 14.4142C35.8216 14.4644 35.5025 14.5376 35.4655 14.5696C35.4198 14.6153 35.3512 14.9353 35.2918 15.301C35.2323 15.6667 35.1775 15.9913 35.1684 16.0183C35.1684 16.064 35.0952 15.7394 35.0266 15.3348L35.0285 15.3412ZM26.3674 15.8596C26.3034 15.7956 26.3217 15.7362 26.4132 15.7362C26.4589 15.7362 26.4954 15.7819 26.4954 15.8185C26.4954 15.9008 26.4314 15.9236 26.372 15.8642L26.3674 15.8596ZM29.3544 15.8094C29.3544 15.7636 29.3544 15.6859 29.4093 15.6356C29.487 15.5579 29.5053 15.5579 29.5784 15.6356C29.6241 15.6814 29.647 15.7591 29.6287 15.8094C29.583 15.9236 29.3955 15.9282 29.3544 15.8094ZM25.8079 15.6722C25.6388 15.5031 25.8536 15.2379 26.0365 15.3796C26.1599 15.4711 26.1279 15.7042 25.9862 15.7271C25.9268 15.7271 25.849 15.7271 25.8125 15.6768L25.8079 15.6722ZM30.2783 15.2562C30.2326 15.1922 30.3377 15.1282 30.4109 15.1739C30.4703 15.2196 30.4109 15.3065 30.356 15.3065C30.3103 15.3065 30.2966 15.3065 30.2783 15.2562ZM25.4728 15.1739C25.4728 15.1282 25.5185 15.0916 25.5551 15.0916C25.6008 15.0916 25.6374 15.1374 25.6374 15.1739C25.6374 15.2196 25.5917 15.2562 25.5551 15.2562C25.5094 15.2562 25.4728 15.2105 25.4728 15.1739ZM31.5674 14.5262C31.4669 14.4256 31.4577 14.229 31.5674 14.1376C31.6497 14.0553 31.892 14.0553 31.9743 14.1376C32.1251 14.2884 31.9743 14.6098 31.7686 14.6098C31.7137 14.6098 31.6314 14.5641 31.5857 14.523L31.5674 14.5262ZM28.9206 13.9044C28.7423 13.7262 28.9663 13.3883 29.1994 13.4519C29.3549 13.4976 29.4371 13.717 29.3549 13.8542C29.2863 13.9639 29.0074 13.9959 28.9206 13.9044ZM30.5169 11.578C30.4575 11.5049 30.4575 11.4775 30.5169 11.4089C30.6312 11.2946 30.7821 11.3586 30.7638 11.514C30.7638 11.6603 30.5992 11.6969 30.5032 11.5826L30.5169 11.578Z" fill="#00FFAF"/>
</svg>
