<svg width="40" height="40" viewBox="0 0 40 40" fill="none" xmlns="http://www.w3.org/2000/svg">
<g clip-path="url(#clip0_77_25)">
<path d="M39.575 5.03772C40.2362 3.10483 40.1182 1.67171 39.2244 0.777721C37.6912 -0.755404 34.9819 0.386549 34.0916 0.761783C32.31 1.51264 30.1445 2.79952 27.6504 4.58835C25.293 3.45436 22.6923 2.85491 19.999 2.85491C15.2794 2.85491 10.8423 4.69288 7.50504 8.03014C2.03222 13.5031 0.907772 21.7023 4.13027 28.2962C0.176834 33.9529 -0.921525 37.533 0.773787 39.2283C1.28808 39.7426 1.98074 40 2.84449 40C3.48207 40 4.21285 39.8598 5.03363 39.5788C6.5109 39.0734 8.33519 38.1112 10.456 36.7187C10.7964 36.4952 11.1427 36.2612 11.4932 36.0191C14.0696 37.4382 16.9761 38.1933 19.999 38.1933C24.7186 38.1933 29.1557 36.3554 32.493 33.0181C38.1339 27.3773 39.1549 18.8403 35.5582 12.1497C35.9672 11.5741 36.3536 11.01 36.7148 10.4599C38.1073 8.33928 39.0696 6.51491 39.575 5.03772ZM2.62472 37.3709C2.4848 36.9242 2.80808 34.9763 5.60222 30.7685C6.16433 31.5575 6.79769 32.3109 7.50496 33.0182C8.0234 33.5366 8.56855 34.0188 9.13707 34.4637C4.42051 37.5825 2.86847 37.4264 2.62472 37.3709ZM11.3932 32.8878C10.6704 32.3824 9.98652 31.8103 9.3498 31.1736C3.47769 25.3015 3.47769 15.7469 9.34973 9.87483C12.1943 7.03038 15.9764 5.46374 19.9991 5.46374C24.0218 5.46374 27.8039 7.0303 30.6485 9.87483C31.3174 10.5437 31.9091 11.2608 32.4257 12.0143C29.868 15.4206 26.5575 19.1896 22.8716 22.8755C18.9617 26.7854 14.958 30.2733 11.3932 32.8878ZM30.6485 31.1737C27.8039 34.0181 24.0219 35.5848 19.9991 35.5848C17.8539 35.5848 15.7771 35.139 13.8745 34.2918C17.2964 31.6961 21.0378 28.3987 24.7162 24.7201C28.1707 21.2656 31.289 17.7558 33.8058 14.507C36.1991 20.0164 35.1468 26.6755 30.6485 31.1737ZM34.2 9.53045C34.1438 9.61381 34.0861 9.69811 34.0286 9.7821C33.5616 9.17303 33.0503 8.58733 32.4932 8.03022C31.7547 7.29178 30.9623 6.62717 30.125 6.03913C31.8745 4.83897 33.4523 3.90991 34.7442 3.32381C36.5048 2.52491 37.2023 2.59561 37.3682 2.63335C37.4261 2.89881 37.5675 4.53897 34.2 9.53045Z" fill="#00FFAF"/>
</g>
<defs>
<clipPath id="clip0_77_25">
<rect width="40" height="40" fill="white"/>
</clipPath>
</defs>
</svg>
