<svg width="40" height="40" viewBox="0 0 40 40" fill="none" xmlns="http://www.w3.org/2000/svg">
<path d="M20 32.5C26.9035 32.5 32.5 26.9035 32.5 20C32.5 13.0964 26.9035 7.5 20 7.5C13.0964 7.5 7.5 13.0964 7.5 20C7.5 26.9035 13.0964 32.5 20 32.5Z" stroke="#00FFAF" stroke-width="4" stroke-linecap="round" stroke-linejoin="round"/>
<path d="M19.9999 24.1666C22.3011 24.1666 24.1666 22.3011 24.1666 20C24.1666 17.6988 22.3011 15.8333 19.9999 15.8333C17.6988 15.8333 15.8333 17.6988 15.8333 20C15.8333 22.3011 17.6988 24.1666 19.9999 24.1666Z" stroke="#00FFAF" stroke-width="4" stroke-linecap="round" stroke-linejoin="round"/>
<path d="M20 9.99998V3.33331" stroke="#00FFAF" stroke-width="4" stroke-linecap="round" stroke-linejoin="round"/>
<path d="M9.99992 20H3.33325" stroke="#00FFAF" stroke-width="4" stroke-linecap="round" stroke-linejoin="round"/>
<path d="M20 30V36.6667" stroke="#00FFAF" stroke-width="4" stroke-linecap="round" stroke-linejoin="round"/>
<path d="M30 20H36.6667" stroke="#00FFAF" stroke-width="4" stroke-linecap="round" stroke-linejoin="round"/>
</svg>
