<svg width="64" height="64" viewBox="0 0 64 64" fill="none" xmlns="http://www.w3.org/2000/svg">
<path fill-rule="evenodd" clip-rule="evenodd" d="M14.8207 31.9077C16.1887 35.0429 18.3137 37.8856 20.8373 39.94C23.9752 42.4944 27.8851 44 32.1203 44C39.7019 44 46.2984 39.1512 49.1789 32.0923C47.8109 28.9571 45.6861 26.1143 43.1624 24.06C40.0245 21.5055 36.1144 20 31.8795 20C24.2978 20 17.7012 24.8487 14.8207 31.9077ZM10.7878 31.2488C14.0228 22.3881 22.2 16 31.8795 16C37.0877 16 41.8789 17.8572 45.6877 20.9579C48.9584 23.6205 51.6083 27.3125 53.1936 31.3312L53.4723 32.0376L53.212 32.7512C49.9768 41.612 41.7997 48 32.1203 48C26.912 48 22.1208 46.1427 18.312 43.0421C15.0413 40.3795 12.3915 36.6875 10.8061 32.6688L10.5273 31.9624L10.7878 31.2488ZM31.9997 28C29.7907 28 27.9997 29.7909 27.9997 32C27.9997 34.2091 29.7907 36 31.9997 36C34.2091 36 35.9997 34.2091 35.9997 32C35.9997 29.7909 34.2091 28 31.9997 28ZM23.9999 32C23.9999 27.5816 27.5816 24 31.9997 24C36.4181 24 39.9997 27.5816 39.9997 32C39.9997 36.4184 36.4181 40 31.9997 40C27.5816 40 23.9999 36.4184 23.9999 32Z" fill="#00FFAF"/>
</svg>
