<svg width="64" height="64" viewBox="0 0 64 64" fill="none" xmlns="http://www.w3.org/2000/svg">
<path fill-rule="evenodd" clip-rule="evenodd" d="M54.9198 11.8933C57.4457 12.5694 59.4308 14.5543 60.1068 17.08C61.3286 21.6534 61.3334 31.2011 61.3334 31.2011C61.3334 31.2011 61.3334 40.7486 60.1068 45.3219C59.4308 47.8478 57.4457 49.8326 54.9198 50.5086C50.3467 51.7352 32.0001 51.7352 32.0001 51.7352C32.0001 51.7352 13.6534 51.7352 9.08008 50.5086C6.55435 49.8326 4.56949 47.8478 3.89339 45.3219C2.66675 40.7486 2.66675 31.2011 2.66675 31.2011C2.66675 31.2011 2.66675 21.6534 3.89339 17.08C4.56949 14.5543 6.55435 12.5694 9.08008 11.8933C13.6534 10.6667 32.0001 10.6667 32.0001 10.6667C32.0001 10.6667 50.3467 10.6667 54.9198 11.8933ZM41.3691 31.2019L26.1278 40.0008V22.4027L41.3691 31.2019Z" stroke="#00FFAF" stroke-width="2.66667" stroke-linejoin="round"/>
</svg>
