<svg width="36" height="36" viewBox="0 0 36 36" fill="none" xmlns="http://www.w3.org/2000/svg">
<g style="mix-blend-mode:color-dodge">
<rect width="20" height="20" transform="translate(8 4)" fill="black"/>
<circle cx="18" cy="14" r="10" fill="url(#paint0_radial_82_171)"/>
<g filter="url(#filter0_f_82_171)">
<path d="M15.8843 28V23.8H16.8443L17.9603 27.682H18.0383L19.1543 23.8H20.1143V28H19.6283V24.13H19.5443L18.4343 28H17.5643L16.4543 24.13H16.3703V28H15.8843Z" fill="#FD2500"/>
</g>
<path d="M15.8843 28V23.8H16.8443L17.9603 27.682H18.0383L19.1543 23.8H20.1143V28H19.6283V24.13H19.5443L18.4343 28H17.5643L16.4543 24.13H16.3703V28H15.8843Z" fill="white"/>
</g>
<defs>
<filter id="filter0_f_82_171" x="14.8843" y="22.8" width="6.22998" height="6.19995" filterUnits="userSpaceOnUse" color-interpolation-filters="sRGB">
<feFlood flood-opacity="0" result="BackgroundImageFix"/>
<feBlend mode="normal" in="SourceGraphic" in2="BackgroundImageFix" result="shape"/>
<feGaussianBlur stdDeviation="0.5" result="effect1_foregroundBlur_82_171"/>
</filter>
<radialGradient id="paint0_radial_82_171" cx="0" cy="0" r="1" gradientUnits="userSpaceOnUse" gradientTransform="translate(18 14) rotate(90) scale(10)">
<stop offset="0.265625" stop-color="white"/>
<stop offset="1" stop-color="#FD2500" stop-opacity="0"/>
</radialGradient>
</defs>
</svg>
