<svg width="40" height="40" viewBox="0 0 40 40" fill="none" xmlns="http://www.w3.org/2000/svg">
<path d="M40 18.9319C40 17.1566 38.5556 15.7122 36.7803 15.7122C35.2234 15.7122 33.9212 16.8232 33.6244 18.2941L28.0587 18.2855C28.0584 18.2855 28.058 18.2855 28.0577 18.2855C27.7099 18.2855 27.4277 18.5673 27.4272 18.9151C27.4267 19.2633 27.7085 19.546 28.0566 19.5465L33.6216 19.555C33.8324 20.6254 34.5752 21.5067 35.5623 21.9116L34.3763 28.048C32.8826 28.0572 31.6271 29.0884 31.2752 30.4762L24.6559 30.1375C24.4462 28.705 23.2899 27.5765 21.8445 27.4085L21.4063 21.9951C22.5548 21.6669 23.443 20.7162 23.6799 19.5324L25.8679 19.5414C25.8688 19.5414 25.8697 19.5414 25.8705 19.5414C26.2175 19.5414 26.4995 19.2608 26.5009 18.9135C26.5023 18.5653 26.2212 18.2819 25.873 18.2804L23.6806 18.2714C23.3876 16.7958 22.0834 15.6798 20.523 15.6798C20.1967 15.6798 19.8816 15.7289 19.5845 15.8196L17.6873 12.2867C18.402 11.6957 18.8582 10.8026 18.8582 9.80483C18.8582 8.02952 17.4138 6.58507 15.6384 6.58507C14.1739 6.58507 12.9354 7.56851 12.5465 8.90944L6.4182 8.3889C6.23828 6.78296 4.87273 5.5303 3.21961 5.5303C1.44437 5.53046 0 6.97476 0 8.75015C0 10.5255 1.44438 11.9698 3.21977 11.9698C4.6843 11.9698 5.92273 10.9864 6.31172 9.64546L12.44 10.166C12.6202 11.7719 13.9856 13.0246 15.6388 13.0246C15.9652 13.0246 16.2803 12.9755 16.5774 12.8846L18.4747 16.4174C17.7599 17.0084 17.3037 17.9016 17.3037 18.8994C17.3037 20.5483 18.5498 21.9108 20.1498 22.0966L20.5879 27.51C19.2408 27.8949 18.2514 29.1365 18.2514 30.6055C18.2514 32.3809 19.6957 33.8253 21.4709 33.8253C22.9734 33.8253 24.2386 32.7907 24.592 31.3966L31.2112 31.7353C31.4388 33.2894 32.7803 34.4867 34.3968 34.4867C36.172 34.4867 37.6163 33.0423 37.6163 31.2669C37.6163 29.9224 36.7877 28.7684 35.6145 28.2871L36.8004 22.1509C38.5664 22.1404 40 20.7006 40 18.9319ZM3.21977 10.7089C2.13969 10.7089 1.26102 9.83015 1.26102 8.75023C1.26102 7.67015 2.13977 6.79148 3.21977 6.79148C4.29977 6.79148 5.17836 7.67023 5.17836 8.75023C5.17836 9.83015 4.29961 10.7089 3.21977 10.7089ZM15.6387 11.7637C14.5588 11.7637 13.6801 10.8849 13.6801 9.80491C13.6801 8.72491 14.5588 7.84616 15.6387 7.84616C16.7188 7.84616 17.5974 8.72491 17.5974 9.80491C17.5974 10.8849 16.7188 11.7637 15.6387 11.7637ZM20.5232 20.8582C19.4431 20.8583 18.5645 19.9795 18.5645 18.8995C18.5645 17.8194 19.4432 16.9408 20.5232 16.9408C21.6032 16.9408 22.4818 17.8195 22.4818 18.8995C22.4818 19.9796 21.6032 20.8582 20.5232 20.8582ZM21.4708 32.5645C20.3908 32.5645 19.5122 31.6858 19.5122 30.6058C19.5122 29.5257 20.3909 28.647 21.4708 28.647C22.5509 28.647 23.4295 29.5258 23.4295 30.6058C23.4295 31.6858 22.5509 32.5645 21.4708 32.5645ZM36.3552 31.2672C36.3552 32.3473 35.4766 33.2259 34.3966 33.2259C33.3164 33.2259 32.4376 32.3472 32.4376 31.2672C32.4376 30.1871 33.3164 29.3084 34.3966 29.3084C35.4766 29.3084 36.3552 30.1871 36.3552 31.2672ZM34.8217 18.9319C34.8217 17.8519 35.7004 16.9732 36.7804 16.9732C37.8605 16.9732 38.7391 17.8519 38.7391 18.9319C38.7391 20.012 37.8604 20.8907 36.7804 20.8907C35.7004 20.8907 34.8217 20.012 34.8217 18.9319Z" fill="#00FFAF"/>
<path d="M8.2846 18.9323C8.99959 18.9323 9.57921 18.3527 9.57921 17.6377C9.57921 16.9227 8.99959 16.3431 8.2846 16.3431C7.56961 16.3431 6.98999 16.9227 6.98999 17.6377C6.98999 18.3527 7.56961 18.9323 8.2846 18.9323Z" fill="#00FFAF"/>
<path d="M26.5704 12.668C27.2852 12.668 27.8649 12.0883 27.8649 11.3733C27.8649 10.6584 27.2852 10.0787 26.5704 10.0787C25.8551 10.0787 25.2756 10.6584 25.2756 11.3733C25.2756 12.0882 25.8551 12.668 26.5704 12.668Z" fill="#00FFAF"/>
<path d="M13.324 24.6192C13.6815 24.6192 13.9713 24.3294 13.9713 23.9719C13.9713 23.6145 13.6815 23.3247 13.324 23.3247C12.9665 23.3247 12.6768 23.6145 12.6768 23.9719C12.6768 24.3294 12.9665 24.6192 13.324 24.6192Z" fill="#00FFAF"/>
<path d="M22.3013 6.80773C22.6588 6.80773 22.9486 6.51794 22.9486 6.16046C22.9486 5.80299 22.6588 5.5132 22.3013 5.5132C21.9438 5.5132 21.6541 5.80299 21.6541 6.16046C21.6541 6.51794 21.9438 6.80773 22.3013 6.80773Z" fill="#00FFAF"/>
</svg>
